<svg viewBox="0 0 512 512" xmlns="http://www.w3.org/2000/svg" xmlns:xlink="http://www.w3.org/1999/xlink"><linearGradient id="a" gradientTransform="matrix(1 0 0 -1 0 -16402)" gradientUnits="userSpaceOnUse" x1="0" x2="512" y1="-16658" y2="-16658"><stop offset="0" stop-color="#31d8ff"/><stop offset="1" stop-color="#ff80ff"/></linearGradient><path d="m512 256c0 141.386719-114.613281 256-256 256s-256-114.613281-256-256 114.613281-256 256-256 256 114.613281 256 256zm0 0" fill="url(#a)"/><g fill="#fff"><path d="m256 455.972656c-11.054688 0-22.105469-2.84375-31.964844-8.527344l-117.980468-68.035156c-19.753907-11.390625-32.023438-32.628906-32.023438-55.429687v-135.960938c0-22.800781 12.269531-44.039062 32.023438-55.429687l117.980468-68.035156c19.71875-11.371094 44.210938-11.367188 63.929688 0l117.980468 68.035156c19.753907 11.390625 32.023438 32.628906 32.023438 55.429687v135.960938c0 22.800781-12.269531 44.039062-32.023438 55.429687l-117.980468 68.035156c-9.859375 5.683594-20.914063 8.527344-31.964844 8.527344zm0-369.957031c-5.871094 0-11.742188 1.507813-16.976562 4.527344l-117.984376 68.035156c-10.492187 6.050781-17.007812 17.328125-17.007812 29.441406v135.960938c0 12.109375 6.515625 23.390625 17.007812 29.441406l117.984376 68.03125c10.472656 6.039063 23.480468 6.039063 33.953124 0l117.984376-68.03125c10.492187-6.050781 17.007812-17.332031 17.007812-29.441406v-135.960938c0-12.109375-6.515625-23.390625-17.007812-29.441406l-117.984376-68.035156c-5.234374-3.019531-11.105468-4.527344-16.976562-4.527344zm0 0"/><path d="m172.753906 320.269531c-4.261718.003907-8.492187-1.800781-11.457031-5.308593-5.351563-6.324219-4.566406-15.789063 1.761719-21.140626l44.695312-37.820312-44.695312-37.820312c-6.324219-5.351563-7.113282-14.816407-1.761719-21.140626 5.347656-6.324218 14.8125-7.113281 21.136719-1.761718l58.230468 49.269531c3.367188 2.851563 5.3125 7.039063 5.3125 11.453125 0 4.410156-1.945312 8.601562-5.3125 11.449219l-58.230468 49.273437c-2.816406 2.382813-6.257813 3.546875-9.679688 3.546875zm0 0"/><path d="m339.253906 320.269531h-70.546875c-8.285156 0-15-6.714843-15-15 0-8.28125 6.714844-15 15-15h70.546875c8.285156 0 15 6.71875 15 15 0 8.285157-6.714844 15-15 15zm0 0"/></g></svg>